<?xml version="1.0" encoding="utf-8"?>
<!-- Generator: Adobe Illustrator 24.3.0, SVG Export Plug-In . SVG Version: 6.00 Build 0)  -->
<svg version="1.1" id="Layer_1" xmlns="http://www.w3.org/2000/svg" xmlns:xlink="http://www.w3.org/1999/xlink" x="0px" y="0px"
	 viewBox="0 0 155.9 170.1" style="enable-background:new 0 0 155.9 170.1;" xml:space="preserve">
<style type="text/css">
	.st0{fill:#F18A00;}
</style>
<g>
	<path id="XMLID_510_" class="st0" d="M148.8,36.3c0-4.9-0.3-9.8-0.7-14.6c-4.3-2.2-8.8-4.2-13.3-5.9c-4.4-1.7-8.9-3.2-13.5-4.5
		c-4.4-1.3-9-2.3-13.6-3.1c-8.9-1.6-18-2.5-27.3-2.5c-11.2,0-22,1.2-32.5,3.5c-4.6,1-9.2,2.2-13.6,3.7c-4.6,1.5-9.1,3.2-13.5,5.1
		c-4.5,2-9,4.1-13.3,6.5c-0.3,4-0.5,8.1-0.5,12.2c0,0.9,0,1.7,0,2.6c0.1,4.9,0.4,9.6,0.9,14.4c0.5,4.7,1.3,9.4,2.2,13.9
		c1.5,7.2,3.5,14.3,6,21.1c1.5,4.2,3.3,8.2,5.1,12.2c0,0.1,0.1,0.1,0.1,0.2c1.9,4,3.9,7.8,6.1,11.6c5.5,9.4,12,18.1,19.4,26.1
		c3,3.2,6.1,6.3,9.3,9.3c3.3,3,6.8,5.9,10.3,8.6c3.6,2.8,7.4,5.4,11.3,7.8c3.9-2.4,7.6-5,11.3-7.8c3.6-2.7,7-5.6,10.3-8.6
		c3.2-3,6.4-6.1,9.3-9.3c8.2-8.9,15.4-18.8,21.3-29.5c2.1-3.8,4-7.6,5.8-11.6c0-0.1,0.1-0.1,0.1-0.2c1.8-4,3.4-8,4.8-12.2
		c2.3-6.8,4.2-13.8,5.5-20.9c0.8-4.5,1.5-9.1,1.9-13.8c0.4-4.6,0.6-9.2,0.6-13.9C148.8,36.5,148.8,36.4,148.8,36.3z M134.8,57.1
		c-1,7-2.6,13.8-4.6,20.4c-1.2,4-2.7,8-4.3,11.8c0,0.1-0.1,0.1-0.1,0.2c-1.6,3.8-3.4,7.6-5.3,11.3c-6.1,11.6-13.9,22.3-22.9,31.7
		c-3,3.1-6.1,6-9.3,8.8c-3.3,2.8-6.7,5.5-10.3,8.1c-3.6-2.5-7-5.2-10.3-8.1c-3.2-2.8-6.4-5.7-9.3-8.8c-8.4-8.7-15.6-18.4-21.5-29
		c-2-3.6-3.9-7.4-5.6-11.2c0-0.1-0.1-0.1-0.1-0.2c-1.7-3.9-3.2-7.8-4.6-11.9c-2.2-6.6-3.9-13.4-5.1-20.5c-0.7-4.4-1.3-8.9-1.6-13.5
		c-0.2-3.2-0.3-6.3-0.3-9.6c0-1.5,0-2.9,0.1-4.4c4.2-2,8.4-3.9,12.8-5.5c4.2-1.6,8.6-2.9,13-4.1c11.2-2.9,22.9-4.5,35-4.5
		c10.3,0,20.3,1.1,29.9,3.3c4.4,1,8.7,2.2,13,3.5c4.4,1.4,8.7,3.1,12.9,4.9c0.1,2.2,0.2,4.5,0.2,6.7c0,2.4-0.1,4.7-0.2,7.1
		C135.9,48.2,135.5,52.7,134.8,57.1z"/>
	<path id="XMLID_504_" class="st0" d="M80.4,30.7c-12.5,0-24.5,1.8-35.9,5.2c-4.2,1.3-8.4,2.7-12.4,4.4c0.1,4.5,0.5,8.8,1.1,13.2
		c0.9,6.9,2.4,13.5,4.4,20c1.2,4,2.6,7.9,4.2,11.6c0,0.1,0.1,0.1,0.1,0.2c1.6,3.8,3.4,7.5,5.3,11.1c5.8,10.6,13,20.3,21.4,28.8
		c3,3,6.1,5.8,9.3,8.5c3.3-2.7,6.4-5.5,9.3-8.5c9-9,16.6-19.4,22.5-30.8c-3.8-1.8-7.7-3.2-11.8-4.3c-5.3,9.9-12.1,18.9-20,26.8
		c-7.6-7.5-14.1-16.1-19.3-25.5c-2-3.6-3.8-7.3-5.4-11.1c0-0.1-0.1-0.1-0.1-0.2c8.5-3,17.7-4.7,27.2-4.7c7.9,0,15.6,1.2,22.9,3.3
		c4,1.2,7.9,2.7,11.7,4.4c1.5-3.8,2.9-7.7,4-11.7c1.9-6.4,3.2-13.1,4-19.9c0.5-4.3,0.8-8.7,0.9-13.1c-4.1-1.5-8.2-2.8-12.5-3.9
		C101.4,32,91.1,30.7,80.4,30.7z M107.2,67c-8.5-2.5-17.5-3.9-26.8-3.9c-11,0-21.5,1.9-31.3,5.4c-1.9-6.4-3.2-12.9-3.9-19.7
		c11.1-3.6,22.9-5.6,35.2-5.6c10.5,0,20.7,1.5,30.4,4.2C110.2,54.1,109,60.6,107.2,67z"/>
</g>
</svg>
