<?xml version="1.0" encoding="utf-8"?>
<!-- Generator: Adobe Illustrator 24.3.0, SVG Export Plug-In . SVG Version: 6.00 Build 0)  -->
<svg version="1.1" id="Layer_1" xmlns="http://www.w3.org/2000/svg" xmlns:xlink="http://www.w3.org/1999/xlink" x="0px" y="0px"
	 viewBox="0 0 297.6 113.4" style="enable-background:new 0 0 297.6 113.4;" xml:space="preserve">
<style type="text/css">
	.st0{fill:#1D242C;}
</style>
<g>
	<path id="XMLID_19_" class="st0" d="M51.8,23.5c-7.6,0-14.9,1.1-21.9,3.2c-2.6,0.8-5.1,1.7-7.6,2.7c0.1,2.7,0.3,5.4,0.7,8
		c0.6,4.2,1.5,8.3,2.7,12.2c0.7,2.4,1.6,4.8,2.6,7.1c0,0,0,0.1,0.1,0.1c1,2.3,2.1,4.6,3.2,6.8c3.5,6.5,7.9,12.4,13.1,17.5
		c1.8,1.8,3.7,3.6,5.7,5.2c2-1.6,3.9-3.4,5.7-5.2c5.5-5.5,10.1-11.8,13.7-18.8c-2.3-1.1-4.7-2-7.2-2.6c-3.2,6-7.4,11.5-12.2,16.3
		c-4.6-4.6-8.6-9.8-11.8-15.6c-1.2-2.2-2.3-4.5-3.3-6.8c0,0,0-0.1-0.1-0.1c5.2-1.9,10.8-2.9,16.6-2.9c4.8,0,9.5,0.7,13.9,2
		c2.5,0.7,4.8,1.6,7.1,2.7c0.9-2.3,1.7-4.7,2.4-7.1c1.1-3.9,2-8,2.4-12.2c0.3-2.6,0.5-5.3,0.5-8c-2.5-0.9-5-1.7-7.6-2.4
		C64.6,24.3,58.3,23.5,51.8,23.5z M68.2,45.7c-5.2-1.6-10.7-2.4-16.3-2.4c-6.7,0-13.1,1.2-19.1,3.3c-1.1-3.9-1.9-7.9-2.4-12
		c6.8-2.2,14-3.4,21.5-3.4c6.4,0,12.6,0.9,18.6,2.5C70,37.8,69.3,41.8,68.2,45.7z"/>
	<path id="XMLID_22_" class="st0" d="M93.6,27c0-3-0.2-6-0.4-8.9c-2.6-1.3-5.4-2.5-8.1-3.6c-2.7-1-5.4-2-8.2-2.8
		c-2.7-0.8-5.5-1.4-8.3-1.9c-5.4-1-11-1.5-16.6-1.5C45,8.3,38.4,9,32,10.4c-2.8,0.6-5.6,1.4-8.3,2.2c-2.8,0.9-5.5,1.9-8.2,3.1
		c-2.8,1.2-5.5,2.5-8.1,4c-0.2,2.4-0.3,4.9-0.3,7.4c0,0.5,0,1.1,0,1.6c0.1,3,0.2,5.9,0.6,8.8C8,40.4,8.5,43.3,9,46
		c0.9,4.4,2.2,8.7,3.7,12.8c0.9,2.5,2,5,3.1,7.4c0,0,0,0.1,0.1,0.1c1.1,2.4,2.4,4.8,3.7,7.1C23,79.3,27,84.6,31.5,89.5
		c1.8,2,3.7,3.9,5.7,5.7c2,1.8,4.1,3.6,6.3,5.2c2.2,1.7,4.5,3.3,6.9,4.8c2.4-1.5,4.7-3.1,6.9-4.8c2.2-1.7,4.3-3.4,6.3-5.2
		c2-1.8,3.9-3.7,5.7-5.7c5-5.4,9.4-11.5,13-18c1.3-2.3,2.4-4.7,3.5-7.1c0,0,0-0.1,0.1-0.1c1.1-2.4,2-4.9,2.9-7.4
		c1.4-4.1,2.5-8.4,3.4-12.8c0.5-2.8,0.9-5.6,1.2-8.4c0.3-2.8,0.4-5.6,0.4-8.5C93.6,27.1,93.6,27,93.6,27z M85,39.6
		c-0.6,4.3-1.6,8.4-2.8,12.4c-0.8,2.5-1.6,4.9-2.6,7.2c0,0,0,0.1-0.1,0.1c-1,2.3-2.1,4.6-3.2,6.9c-3.7,7.1-8.5,13.6-14,19.3
		c-1.8,1.9-3.7,3.7-5.7,5.4c-2,1.7-4.1,3.4-6.3,4.9C48.1,94.4,46,92.8,44,91c-2-1.7-3.9-3.5-5.7-5.4c-5.1-5.3-9.5-11.2-13.1-17.7
		c-1.2-2.2-2.4-4.5-3.4-6.8c0,0,0-0.1-0.1-0.1c-1-2.4-2-4.8-2.8-7.2c-1.3-4-2.4-8.2-3.1-12.5c-0.5-2.7-0.8-5.5-1-8.2
		c-0.1-1.9-0.2-3.9-0.2-5.8c0-0.9,0-1.8,0-2.7c2.5-1.2,5.1-2.4,7.8-3.4c2.6-1,5.2-1.8,7.9-2.5c6.8-1.8,14-2.7,21.4-2.7
		c6.3,0,12.4,0.7,18.2,2c2.7,0.6,5.3,1.3,7.9,2.2c2.7,0.9,5.3,1.9,7.9,3c0.1,1.4,0.1,2.7,0.1,4.1c0,1.4,0,2.9-0.1,4.3
		C85.7,34.2,85.4,37,85,39.6z"/>
	<path id="XMLID_17_" class="st0" d="M126.2,61.1h-14.3l-1.7,10.1h16.9l-1.1,6.2h-24.4L108,40h24.3l-1.1,6.2h-16.8l-1.6,8.9h14.4
		L126.2,61.1z"/>
	<path id="XMLID_15_" class="st0" d="M139,71.2h15.9l-1.1,6.2h-23.4l6.5-37.4h7.5L139,71.2z"/>
	<path id="XMLID_13_" class="st0" d="M166.9,71.2h15.9l-1.1,6.2h-23.4l6.5-37.4h7.5L166.9,71.2z"/>
	<path id="XMLID_11_" class="st0" d="M255.5,61.1h-14.3l-1.7,10.1h16.9l-1.1,6.2h-24.4l6.5-37.4h24.3l-1.1,6.2h-16.8l-1.6,8.9h14.4
		L255.5,61.1z"/>
	<path id="XMLID_9_" class="st0" d="M284.4,61.1h-14.3l-1.7,10.1h16.9l-1.1,6.2h-24.4l6.5-37.4h24.3l-1.1,6.2h-16.8l-1.6,8.9h14.4
		L284.4,61.1z"/>
	<polygon id="XMLID_8_" class="st0" points="224.8,40 219.4,71.2 210.9,71.2 213.6,55.6 213.6,55.6 216.3,40 208.8,40 203.3,71.2 
		197.4,71.2 194.8,71.2 200.2,40 192.7,40 186.2,77.4 196.3,77.4 202.3,77.4 209.6,77.4 209.8,77.4 218.3,77.4 218.3,77.4 
		225.8,77.4 229.6,55.6 229.6,55.6 232.3,40 	"/>
</g>
</svg>
